<svg width="270" height="270" viewBox="0 0 270 270" fill="none" xmlns="http://www.w3.org/2000/svg">
<rect x="19" y="19" width="233" height="233" rx="20" fill="#0F172A"/>
<path d="M71.12 93.48C74.984 93.48 78.4187 94.308 81.424 95.964C84.4907 97.62 86.8827 100.073 88.6 103.324C90.3787 106.575 91.268 110.5 91.268 115.1V145H80.872V116.664C80.872 112.125 79.7373 108.66 77.468 106.268C75.1987 103.815 72.1013 102.588 68.176 102.588C64.2507 102.588 61.1227 103.815 58.792 106.268C56.5227 108.66 55.388 112.125 55.388 116.664V145H44.9V76.92H55.388V100.196C57.1667 98.0493 59.4053 96.3933 62.104 95.228C64.864 94.0627 67.8693 93.48 71.12 93.48ZM105.75 119.424C105.75 114.333 106.793 109.825 108.878 105.9C111.025 101.975 113.907 98.9387 117.526 96.792C121.206 94.584 125.285 93.48 129.762 93.48C133.074 93.48 136.325 94.216 139.514 95.688C142.765 97.0987 145.341 99 147.242 101.392V76.92H157.822V145H147.242V137.364C145.525 139.817 143.133 141.841 140.066 143.436C137.061 145.031 133.595 145.828 129.67 145.828C125.254 145.828 121.206 144.724 117.526 142.516C113.907 140.247 111.025 137.119 108.878 133.132C106.793 129.084 105.75 124.515 105.75 119.424ZM147.242 119.608C147.242 116.112 146.506 113.076 145.034 110.5C143.623 107.924 141.753 105.961 139.422 104.612C137.091 103.263 134.577 102.588 131.878 102.588C129.179 102.588 126.665 103.263 124.334 104.612C122.003 105.9 120.102 107.832 118.63 110.408C117.219 112.923 116.514 115.928 116.514 119.424C116.514 122.92 117.219 125.987 118.63 128.624C120.102 131.261 122.003 133.285 124.334 134.696C126.726 136.045 129.241 136.72 131.878 136.72C134.577 136.72 137.091 136.045 139.422 134.696C141.753 133.347 143.623 131.384 145.034 128.808C146.506 126.171 147.242 123.104 147.242 119.608ZM197.45 102.864H188.066V145H177.486V102.864H171.506V94.308H177.486V90.72C177.486 84.8933 179.019 80.6613 182.086 78.024C185.214 75.3253 190.09 73.976 196.714 73.976V82.716C193.524 82.716 191.286 83.3293 189.998 84.556C188.71 85.7213 188.066 87.776 188.066 90.72V94.308H197.45V102.864ZM71.12 173.48C74.984 173.48 78.4187 174.308 81.424 175.964C84.4907 177.62 86.8827 180.073 88.6 183.324C90.3787 186.575 91.268 190.5 91.268 195.1V225H80.872V196.664C80.872 192.125 79.7373 188.66 77.468 186.268C75.1987 183.815 72.1013 182.588 68.176 182.588C64.2507 182.588 61.1227 183.815 58.792 186.268C56.5227 188.66 55.388 192.125 55.388 196.664V225H44.9V156.92H55.388V180.196C57.1667 178.049 59.4053 176.393 62.104 175.228C64.864 174.063 67.8693 173.48 71.12 173.48ZM121.482 182.864V210.924C121.482 212.825 121.911 214.205 122.77 215.064C123.69 215.861 125.223 216.26 127.37 216.26H133.81V225H125.53C120.807 225 117.189 223.896 114.674 221.688C112.159 219.48 110.902 215.892 110.902 210.924V182.864H104.922V174.308H110.902V161.704H121.482V174.308H133.81V182.864H121.482ZM160.313 182.864V210.924C160.313 212.825 160.742 214.205 161.601 215.064C162.521 215.861 164.054 216.26 166.201 216.26H172.641V225H164.361C159.638 225 156.019 223.896 153.505 221.688C150.99 219.48 149.733 215.892 149.733 210.924V182.864H143.753V174.308H149.733V161.704H160.313V174.308H172.641V182.864H160.313ZM191.139 225.644C189.238 225.644 187.643 225 186.355 223.712C185.067 222.424 184.423 220.829 184.423 218.928C184.423 217.027 185.067 215.432 186.355 214.144C187.643 212.856 189.238 212.212 191.139 212.212C192.979 212.212 194.543 212.856 195.831 214.144C197.119 215.432 197.763 217.027 197.763 218.928C197.763 220.829 197.119 222.424 195.831 223.712C194.543 225 192.979 225.644 191.139 225.644Z" fill="white"/>
</svg>
