<svg width="270" height="270" viewBox="0 0 270 270" fill="none" xmlns="http://www.w3.org/2000/svg">
<rect x="19" y="19" width="233" height="233" rx="10" fill="#0F172A"/>
<path d="M73.052 93.296C76.916 93.296 80.3507 94.1547 83.356 95.872C86.3613 97.528 88.692 100.012 90.348 103.324C92.0653 106.575 92.924 110.5 92.924 115.1V145H80.044V116.848C80.044 112.8 79.032 109.703 77.008 107.556C74.984 105.348 72.224 104.244 68.728 104.244C65.1707 104.244 62.3493 105.348 60.264 107.556C58.24 109.703 57.228 112.8 57.228 116.848V145H44.348V76.92H57.228V100.38C58.884 98.172 61.092 96.4547 63.852 95.228C66.612 93.94 69.6787 93.296 73.052 93.296ZM106.46 119.332C106.46 114.18 107.472 109.611 109.496 105.624C111.582 101.637 114.403 98.5707 117.96 96.424C121.518 94.2773 125.474 93.204 129.828 93.204C133.14 93.204 136.299 93.94 139.304 95.412C142.31 96.8227 144.702 98.724 146.48 101.116V76.92H159.544V145H146.48V137.456C144.886 139.971 142.647 141.995 139.764 143.528C136.882 145.061 133.539 145.828 129.736 145.828C125.443 145.828 121.518 144.724 117.96 142.516C114.403 140.308 111.582 137.211 109.496 133.224C107.472 129.176 106.46 124.545 106.46 119.332ZM146.572 119.516C146.572 116.388 145.959 113.72 144.732 111.512C143.506 109.243 141.85 107.525 139.764 106.36C137.679 105.133 135.44 104.52 133.048 104.52C130.656 104.52 128.448 105.103 126.424 106.268C124.4 107.433 122.744 109.151 121.456 111.42C120.23 113.628 119.616 116.265 119.616 119.332C119.616 122.399 120.23 125.097 121.456 127.428C122.744 129.697 124.4 131.445 126.424 132.672C128.51 133.899 130.718 134.512 133.048 134.512C135.44 134.512 137.679 133.929 139.764 132.764C141.85 131.537 143.506 129.82 144.732 127.612C145.959 125.343 146.572 122.644 146.572 119.516ZM200.092 104.612H191.168V145H178.104V104.612H172.308V94.032H178.104V91.456C178.104 85.2 179.882 80.6 183.44 77.656C186.997 74.712 192.364 73.332 199.54 73.516V84.372C196.412 84.3107 194.234 84.832 193.008 85.936C191.781 87.04 191.168 89.0333 191.168 91.916V94.032H200.092V104.612ZM73.052 173.296C76.916 173.296 80.3507 174.155 83.356 175.872C86.3613 177.528 88.692 180.012 90.348 183.324C92.0653 186.575 92.924 190.5 92.924 195.1V225H80.044V196.848C80.044 192.8 79.032 189.703 77.008 187.556C74.984 185.348 72.224 184.244 68.728 184.244C65.1707 184.244 62.3493 185.348 60.264 187.556C58.24 189.703 57.228 192.8 57.228 196.848V225H44.348V156.92H57.228V180.38C58.884 178.172 61.092 176.455 63.852 175.228C66.612 173.94 69.6787 173.296 73.052 173.296ZM124.768 184.612V209.268C124.768 210.985 125.167 212.243 125.964 213.04C126.823 213.776 128.234 214.144 130.196 214.144H136.176V225H128.08C117.224 225 111.796 219.725 111.796 209.176V184.612H105.724V174.032H111.796V161.428H124.768V174.032H136.176V184.612H124.768ZM165.036 184.612V209.268C165.036 210.985 165.435 212.243 166.232 213.04C167.091 213.776 168.502 214.144 170.464 214.144H176.444V225H168.348C157.492 225 152.064 219.725 152.064 209.176V184.612H145.992V174.032H152.064V161.428H165.036V174.032H176.444V184.612H165.036ZM196.012 225.644C193.681 225.644 191.749 224.939 190.216 223.528C188.744 222.056 188.008 220.247 188.008 218.1C188.008 215.953 188.744 214.175 190.216 212.764C191.749 211.292 193.681 210.556 196.012 210.556C198.281 210.556 200.152 211.292 201.624 212.764C203.096 214.175 203.832 215.953 203.832 218.1C203.832 220.247 203.096 222.056 201.624 223.528C200.152 224.939 198.281 225.644 196.012 225.644Z" fill="white"/>
</svg>
